<svg id="svg" version="1.1" xmlns="http://www.w3.org/2000/svg" xmlns:xlink="http://www.w3.org/1999/xlink" width="400" height="400" viewBox="0, 0, 400,400"><g id="svgg"><path id="path0" d="M85.000 42.261 C 80.927 43.253,79.228 44.443,77.660 47.400 L 76.600 49.400 76.492 198.000 C 76.426 290.146,76.528 347.208,76.762 348.200 C 78.164 354.142,79.800 355.892,85.400 357.438 C 87.750 358.087,205.548 358.225,218.000 357.593 C 230.262 356.971,241.840 355.456,250.200 353.379 C 251.520 353.052,254.040 352.440,255.800 352.020 C 257.560 351.601,260.440 350.728,262.200 350.081 C 263.960 349.434,266.390 348.540,267.600 348.095 C 271.240 346.755,275.238 344.748,283.400 340.162 C 284.060 339.791,285.140 339.064,285.800 338.547 C 286.460 338.030,287.427 337.290,287.949 336.904 C 296.263 330.743,303.964 321.520,309.192 311.464 C 310.318 309.299,311.397 307.229,311.591 306.864 C 316.372 297.851,320.660 280.429,322.486 262.600 C 323.371 253.954,323.387 252.877,323.394 201.200 C 323.400 148.609,323.357 146.522,321.985 132.200 C 321.418 126.279,318.187 110.703,316.800 107.200 C 316.408 106.210,315.961 104.807,315.808 104.081 C 315.654 103.356,314.812 101.016,313.937 98.881 C 313.062 96.747,312.174 94.431,311.964 93.735 C 311.168 91.101,305.074 80.888,302.693 78.199 C 300.140 75.315,295.461 70.373,293.600 68.594 C 289.160 64.351,286.993 62.407,286.700 62.403 C 286.535 62.401,286.081 62.081,285.692 61.692 C 285.302 61.302,284.107 60.447,283.036 59.792 C 281.965 59.136,280.439 58.201,279.644 57.714 C 278.350 56.920,273.382 54.436,270.200 52.991 C 264.419 50.368,253.198 46.901,247.600 46.009 C 245.950 45.746,243.610 45.286,242.400 44.985 C 241.190 44.685,237.500 44.153,234.200 43.802 C 230.900 43.452,227.030 42.974,225.600 42.741 C 222.983 42.314,86.692 41.849,85.000 42.261 M227.000 63.958 C 229.640 64.206,232.970 64.659,234.400 64.965 C 235.830 65.272,238.080 65.642,239.400 65.788 C 243.469 66.239,256.129 69.642,259.400 71.165 C 266.656 74.543,269.810 76.246,272.000 77.969 C 272.770 78.575,273.763 79.263,274.207 79.500 C 274.651 79.736,275.912 80.800,277.010 81.864 C 278.107 82.929,279.814 84.520,280.804 85.400 C 285.443 89.527,289.669 95.746,293.034 103.400 C 293.808 105.160,294.645 106.960,294.893 107.400 C 295.928 109.232,299.801 124.564,300.198 128.400 C 300.346 129.830,300.727 132.530,301.044 134.400 C 303.026 146.058,303.003 254.537,301.017 265.980 C 300.691 267.861,300.152 271.200,299.820 273.400 C 298.886 279.595,296.746 287.788,294.949 292.050 C 294.427 293.288,294.000 294.465,294.000 294.666 C 294.000 295.203,289.919 303.132,288.682 305.000 C 285.461 309.863,283.953 311.692,279.616 316.000 C 273.329 322.245,265.151 326.914,253.753 330.767 C 251.746 331.445,249.812 332.000,249.454 332.000 C 249.096 332.000,247.767 332.349,246.502 332.776 C 245.236 333.203,242.760 333.751,241.000 333.995 C 239.240 334.238,236.450 334.692,234.800 335.003 C 227.440 336.392,222.660 336.500,161.000 336.662 C 111.028 336.794,99.617 336.727,98.800 336.299 C 97.834 335.791,97.802 335.646,97.859 331.987 C 97.891 329.904,97.906 327.930,97.893 327.600 C 97.577 319.868,97.712 64.547,98.032 64.161 C 98.267 63.879,98.940 63.566,99.529 63.466 C 101.968 63.054,222.299 63.518,227.000 63.958 " stroke="none" fill="#dcdbdd" fill-rule="evenodd"></path><path id="path1" d="M99.600 63.475 C 99.050 63.586,98.377 63.860,98.105 64.084 C 97.471 64.604,97.355 325.304,97.988 326.968 C 98.372 327.978,98.463 328.000,102.190 328.000 L 106.000 328.000 106.000 200.429 C 106.000 84.988,106.060 72.797,106.629 72.229 C 107.194 71.663,113.166 71.601,166.529 71.615 C 232.210 71.631,237.212 71.791,249.000 74.252 C 250.540 74.574,253.420 75.153,255.400 75.539 C 257.380 75.926,259.364 76.442,259.809 76.687 C 260.254 76.931,261.784 77.433,263.209 77.801 C 264.634 78.170,265.980 78.618,266.200 78.798 C 266.420 78.977,267.680 79.433,269.000 79.810 C 270.320 80.188,271.622 80.674,271.892 80.891 C 272.869 81.673,278.400 84.299,278.400 83.981 C 278.400 83.388,275.418 80.091,274.470 79.636 C 273.959 79.391,272.879 78.668,272.070 78.029 C 269.816 76.249,266.740 74.582,259.400 71.165 C 256.129 69.642,243.469 66.239,239.400 65.788 C 238.080 65.642,235.830 65.272,234.400 64.965 C 228.191 63.634,222.377 63.509,161.400 63.391 C 127.960 63.327,100.150 63.365,99.600 63.475 M289.800 64.990 C 294.995 69.875,298.531 73.498,302.693 78.199 C 305.074 80.888,311.168 91.101,311.964 93.735 C 312.174 94.431,313.062 96.747,313.937 98.881 C 314.812 101.016,315.654 103.356,315.808 104.081 C 315.961 104.807,316.408 106.210,316.800 107.200 C 318.187 110.703,321.418 126.279,321.985 132.200 C 323.357 146.522,323.400 148.609,323.394 201.200 C 323.387 252.877,323.371 253.954,322.486 262.600 C 320.660 280.429,316.372 297.851,311.591 306.864 C 311.397 307.229,310.318 309.299,309.192 311.464 C 303.964 321.520,296.263 330.743,287.949 336.904 C 287.427 337.290,286.460 338.030,285.800 338.547 C 285.140 339.064,284.060 339.791,283.400 340.162 C 275.238 344.748,271.240 346.755,267.600 348.095 C 266.390 348.540,263.960 349.434,262.200 350.081 C 260.440 350.728,257.560 351.601,255.800 352.020 C 254.040 352.440,251.520 353.052,250.200 353.379 C 241.840 355.456,230.262 356.971,218.000 357.593 C 205.548 358.225,87.750 358.087,85.400 357.438 C 82.140 356.538,80.590 355.722,79.258 354.205 C 77.800 352.544,77.592 352.681,78.895 354.443 C 79.819 355.692,83.127 357.600,84.371 357.600 C 85.296 357.600,86.265 358.707,86.634 360.187 C 87.141 362.217,90.257 365.391,92.108 365.762 C 94.005 366.141,225.890 366.000,233.200 365.610 C 236.830 365.417,241.870 364.899,244.400 364.458 C 246.930 364.018,250.350 363.532,252.000 363.378 C 253.650 363.224,255.204 362.936,255.454 362.738 C 255.703 362.541,257.391 362.118,259.204 361.799 C 261.018 361.480,263.424 360.877,264.551 360.458 C 265.678 360.038,267.410 359.567,268.400 359.409 C 269.390 359.252,270.563 358.894,271.006 358.614 C 271.449 358.334,272.439 357.972,273.206 357.809 C 273.973 357.647,275.140 357.194,275.800 356.802 C 276.460 356.411,277.450 355.966,278.000 355.812 C 279.304 355.448,288.115 351.042,290.287 349.667 C 299.740 343.686,307.848 336.121,312.440 329.000 C 313.008 328.120,313.816 326.877,314.236 326.239 C 316.798 322.345,321.369 313.310,321.987 310.917 C 322.226 309.991,322.572 309.141,322.756 309.027 C 322.940 308.914,323.322 307.961,323.606 306.910 C 323.889 305.860,324.339 304.550,324.605 304.000 C 325.239 302.691,326.650 297.192,327.607 292.301 C 328.027 290.157,328.534 288.087,328.735 287.701 C 328.936 287.316,329.315 284.840,329.579 282.200 C 329.842 279.560,330.360 275.780,330.729 273.800 C 331.609 269.081,331.775 146.707,330.904 144.600 C 330.631 143.940,330.144 140.979,329.822 138.020 C 329.279 133.031,328.445 128.536,326.962 122.600 C 326.632 121.280,326.093 119.120,325.764 117.800 C 325.434 116.480,324.917 114.860,324.613 114.200 C 324.310 113.540,323.934 112.460,323.777 111.800 C 323.227 109.476,321.078 104.439,318.254 98.851 C 315.178 92.766,315.094 92.617,314.532 92.280 C 314.240 92.104,314.000 91.768,314.000 91.534 C 314.000 89.411,292.705 65.883,289.000 63.911 C 288.560 63.677,288.920 64.163,289.800 64.990 M77.124 350.600 C 77.326 351.040,77.592 351.670,77.714 352.000 C 77.907 352.518,77.941 352.515,77.968 351.976 C 77.986 351.634,77.720 351.004,77.378 350.576 C 76.766 349.812,76.762 349.813,77.124 350.600 " stroke="none" fill="#23abbc" fill-rule="evenodd"></path><path id="path2" d="M73.149 34.216 C 71.123 34.850,69.445 36.654,68.548 39.164 C 67.867 41.071,67.752 340.092,68.432 342.541 C 69.021 344.661,71.887 347.468,73.838 347.833 C 74.667 347.989,75.742 348.544,76.226 349.066 L 77.106 350.016 76.746 348.308 C 76.534 347.305,76.429 285.221,76.492 198.000 L 76.600 49.400 77.660 47.400 C 78.983 44.905,80.057 43.942,82.600 42.967 C 85.549 41.836,218.125 41.766,226.600 42.890 C 229.460 43.269,233.690 43.775,236.000 44.013 C 238.310 44.251,241.190 44.691,242.400 44.989 C 243.610 45.287,245.950 45.746,247.600 46.009 C 253.198 46.901,264.419 50.368,270.200 52.991 C 273.382 54.436,278.350 56.920,279.644 57.714 C 280.439 58.201,281.969 59.131,283.044 59.781 C 284.120 60.430,285.094 61.094,285.209 61.257 C 285.754 62.028,288.410 63.566,288.039 62.896 C 287.285 61.531,285.030 59.413,279.600 54.968 C 277.546 53.287,270.795 48.806,269.000 47.931 C 268.340 47.610,267.440 47.151,267.000 46.911 C 266.149 46.448,262.056 44.554,259.400 43.395 C 257.179 42.426,252.591 40.845,250.200 40.225 C 249.100 39.940,247.515 39.418,246.677 39.064 C 245.839 38.711,244.219 38.300,243.077 38.151 C 241.935 38.003,240.301 37.638,239.446 37.339 C 238.591 37.041,235.804 36.524,233.254 36.189 C 230.703 35.855,227.946 35.401,227.126 35.180 C 222.785 34.011,214.886 33.873,145.600 33.756 C 84.839 33.653,74.742 33.717,73.149 34.216 M278.429 84.070 C 278.698 84.581,279.327 85.491,279.826 86.091 C 280.325 86.691,281.209 88.131,281.789 89.291 C 282.370 90.451,283.096 91.850,283.403 92.400 C 284.994 95.248,286.791 100.003,288.012 104.600 C 288.422 106.140,289.027 108.140,289.357 109.044 C 289.687 109.949,290.069 111.659,290.205 112.844 C 290.341 114.030,290.800 116.530,291.225 118.400 C 293.423 128.071,294.862 230.843,293.037 247.800 C 292.705 250.880,292.325 254.930,292.191 256.800 C 292.057 258.670,291.679 261.460,291.351 263.000 C 291.022 264.540,290.502 267.289,290.195 269.110 C 289.887 270.930,289.543 272.568,289.431 272.750 C 289.318 272.932,288.789 274.683,288.254 276.641 C 286.833 281.840,284.057 289.068,282.970 290.400 C 282.700 290.730,282.191 291.630,281.839 292.400 C 281.486 293.170,280.664 294.610,280.012 295.600 C 279.360 296.590,278.435 298.120,277.956 299.000 C 277.157 300.466,268.602 309.248,266.357 310.907 C 254.631 319.569,239.220 325.125,223.400 326.396 C 220.760 326.608,217.700 326.998,216.600 327.263 C 215.103 327.623,199.980 327.778,156.418 327.881 C 111.004 327.988,98.166 328.126,97.916 328.509 C 97.080 329.791,97.757 335.756,98.800 336.301 C 99.614 336.726,111.177 336.793,161.000 336.662 C 222.660 336.500,227.440 336.392,234.800 335.003 C 236.450 334.692,239.240 334.238,241.000 333.995 C 242.760 333.751,245.236 333.203,246.502 332.776 C 247.767 332.349,249.096 332.000,249.454 332.000 C 249.812 332.000,251.746 331.445,253.753 330.767 C 272.606 324.395,283.753 315.168,291.871 299.216 C 293.042 296.915,294.000 294.868,294.000 294.666 C 294.000 294.465,294.427 293.288,294.949 292.050 C 296.746 287.788,298.886 279.595,299.820 273.400 C 300.152 271.200,300.691 267.861,301.017 265.980 C 303.003 254.537,303.026 146.058,301.044 134.400 C 300.727 132.530,300.346 129.830,300.198 128.400 C 299.801 124.564,295.928 109.232,294.893 107.400 C 294.645 106.960,293.808 105.160,293.034 103.400 C 291.078 98.950,288.737 94.764,286.695 92.062 C 282.664 86.727,276.889 81.144,278.429 84.070 " stroke="none" fill="#d524ca" fill-rule="evenodd"></path><path id="path3" d="M0.000 200.000 L 0.000 400.000 200.000 400.000 L 400.000 400.000 400.000 200.000 L 400.000 0.000 200.000 0.000 L 0.000 0.000 0.000 200.000 M186.200 32.942 C 213.147 33.108,225.873 33.602,228.192 34.571 C 228.924 34.877,231.565 35.340,234.061 35.600 C 236.558 35.860,239.140 36.320,239.800 36.623 C 240.460 36.925,242.253 37.368,243.784 37.607 C 245.315 37.847,247.115 38.296,247.784 38.607 C 248.453 38.918,249.859 39.360,250.908 39.590 C 251.957 39.819,253.485 40.365,254.302 40.803 C 255.119 41.242,256.169 41.600,256.635 41.600 C 257.100 41.600,258.273 42.020,259.240 42.533 C 260.208 43.047,261.540 43.601,262.200 43.765 C 262.860 43.928,263.670 44.288,264.000 44.563 C 264.330 44.839,265.455 45.380,266.500 45.765 C 267.545 46.151,268.400 46.617,268.400 46.801 C 268.400 46.986,268.957 47.259,269.637 47.408 C 270.318 47.558,271.250 48.112,271.710 48.640 C 272.169 49.168,272.754 49.600,273.009 49.600 C 273.405 49.600,277.008 52.089,280.346 54.669 C 284.003 57.496,288.560 61.664,288.887 62.482 C 289.045 62.877,289.368 63.200,289.606 63.200 C 290.102 63.200,293.659 66.480,297.768 70.726 C 299.326 72.335,302.706 75.791,305.279 78.405 C 307.853 81.020,310.242 83.708,310.589 84.380 C 310.937 85.051,311.384 85.600,311.583 85.600 C 311.783 85.600,312.051 85.931,312.179 86.335 C 312.308 86.739,312.950 87.672,313.606 88.407 C 314.263 89.142,314.800 89.942,314.800 90.183 C 314.800 90.425,315.160 90.930,315.600 91.307 C 316.040 91.684,316.400 92.238,316.400 92.538 C 316.400 92.838,316.850 93.569,317.400 94.162 C 317.950 94.756,318.400 95.568,318.400 95.967 C 318.400 96.366,318.766 97.158,319.214 97.727 C 319.662 98.297,320.231 99.356,320.478 100.081 C 320.726 100.807,321.259 101.829,321.664 102.354 C 322.069 102.879,322.400 103.667,322.400 104.107 C 322.400 104.546,322.787 105.532,323.260 106.297 C 323.733 107.062,324.273 108.510,324.461 109.514 C 324.648 110.518,325.077 111.643,325.413 112.014 C 325.749 112.386,326.192 113.725,326.398 114.991 C 326.604 116.256,327.120 118.036,327.545 118.946 C 327.969 119.856,328.435 121.860,328.579 123.400 C 328.723 124.940,329.122 126.630,329.466 127.155 C 329.865 127.765,330.222 129.743,330.452 132.621 C 330.650 135.101,331.090 137.796,331.430 138.610 C 333.382 143.283,333.398 273.830,331.447 279.600 C 331.112 280.590,330.650 283.360,330.421 285.756 C 330.191 288.152,329.740 290.639,329.418 291.284 C 329.096 291.929,328.718 293.568,328.576 294.928 C 328.435 296.288,327.990 298.120,327.587 299.000 C 327.184 299.880,326.662 301.665,326.428 302.967 C 326.194 304.269,325.747 305.619,325.435 305.967 C 325.123 306.315,324.746 307.320,324.596 308.200 C 324.447 309.080,323.986 310.283,323.571 310.873 C 323.156 311.463,322.654 312.667,322.456 313.549 C 322.258 314.431,321.714 315.637,321.248 316.230 C 320.782 316.823,320.400 317.630,320.400 318.023 C 320.400 318.417,319.950 319.273,319.400 319.927 C 318.850 320.581,318.400 321.370,318.400 321.680 C 318.400 321.991,317.950 322.855,317.400 323.600 C 316.850 324.345,316.400 325.180,316.400 325.455 C 316.400 325.730,316.076 326.190,315.680 326.477 C 315.284 326.765,314.727 327.572,314.443 328.271 C 314.159 328.970,313.583 329.853,313.163 330.233 C 312.744 330.613,312.400 331.115,312.400 331.348 C 312.400 331.581,312.043 332.138,311.607 332.586 C 311.171 333.034,309.940 334.482,308.873 335.804 C 306.426 338.832,304.832 340.426,301.804 342.873 C 300.482 343.940,299.034 345.171,298.586 345.607 C 298.138 346.043,297.563 346.400,297.309 346.400 C 297.054 346.400,296.610 346.733,296.323 347.140 C 296.035 347.548,295.247 348.166,294.571 348.514 C 293.895 348.862,293.108 349.429,292.822 349.774 C 292.536 350.118,291.974 350.400,291.574 350.400 C 291.173 350.400,290.594 350.759,290.286 351.199 C 289.978 351.638,289.113 352.207,288.363 352.463 C 287.613 352.719,286.587 353.247,286.081 353.636 C 285.576 354.026,284.643 354.459,284.009 354.598 C 283.374 354.737,282.642 355.109,282.381 355.423 C 282.120 355.737,281.163 356.192,280.253 356.434 C 279.344 356.676,278.323 357.122,277.984 357.423 C 277.645 357.725,276.387 358.183,275.189 358.440 C 273.990 358.697,272.811 359.179,272.568 359.511 C 272.315 359.857,271.045 360.263,269.590 360.462 C 268.195 360.653,266.768 361.067,266.420 361.382 C 266.072 361.697,264.530 362.151,262.993 362.391 C 261.457 362.631,259.590 363.111,258.845 363.459 C 258.100 363.806,255.530 364.247,253.135 364.440 C 250.522 364.650,248.273 365.052,247.513 365.445 C 246.540 365.948,244.295 366.185,237.823 366.465 C 233.190 366.666,228.680 367.037,227.800 367.290 C 225.720 367.887,98.178 368.235,95.305 367.651 C 88.805 366.331,86.138 364.526,85.724 361.165 C 85.483 359.214,84.756 358.400,83.253 358.400 C 81.804 358.400,78.153 355.743,77.556 354.254 C 77.280 353.564,76.739 352.587,76.355 352.081 C 75.970 351.576,75.539 350.631,75.396 349.981 C 75.172 348.961,74.908 348.765,73.468 348.547 C 71.053 348.182,68.219 345.155,67.602 342.280 C 67.069 339.793,67.234 40.497,67.770 38.684 C 68.472 36.309,71.171 34.015,73.800 33.558 C 75.120 33.329,76.830 33.020,77.600 32.871 C 78.998 32.600,137.001 32.639,186.200 32.942 M108.000 73.601 C 107.540 74.460,107.391 325.389,107.849 326.584 C 107.981 326.927,108.502 327.311,109.007 327.437 C 110.935 327.921,211.733 327.355,213.200 326.852 C 213.970 326.588,217.840 326.120,221.800 325.813 C 225.891 325.495,229.605 325.004,230.400 324.674 C 231.170 324.355,233.593 323.887,235.784 323.633 C 237.974 323.380,240.044 322.938,240.384 322.651 C 240.723 322.365,242.075 321.899,243.388 321.617 C 244.701 321.334,246.144 320.862,246.593 320.568 C 247.043 320.273,248.353 319.830,249.505 319.583 C 250.657 319.336,251.600 318.984,251.600 318.800 C 251.600 318.616,252.455 318.151,253.500 317.765 C 254.545 317.380,255.684 316.825,256.031 316.532 C 256.379 316.239,256.835 316.000,257.045 316.000 C 257.763 316.000,262.839 312.647,266.792 309.562 C 270.737 306.483,276.769 300.028,277.871 297.708 C 278.212 296.989,278.637 296.400,278.815 296.400 C 278.992 296.400,279.346 295.770,279.600 295.000 C 279.854 294.230,280.202 293.600,280.373 293.600 C 280.693 293.600,283.989 287.234,284.014 286.570 C 284.021 286.366,284.375 285.480,284.800 284.600 C 285.225 283.720,285.579 282.747,285.586 282.439 C 285.594 282.130,286.030 280.960,286.556 279.839 C 287.082 278.717,287.639 276.810,287.794 275.600 C 287.949 274.390,288.329 273.001,288.639 272.513 C 288.948 272.026,289.457 269.686,289.770 267.313 C 290.083 264.941,290.532 262.495,290.768 261.878 C 291.004 261.261,291.387 258.111,291.619 254.878 C 291.850 251.645,292.247 247.020,292.501 244.600 C 293.293 237.032,293.404 146.134,292.630 138.600 C 292.291 135.300,291.833 129.882,291.611 126.560 C 291.390 123.238,290.961 119.908,290.656 119.160 C 290.352 118.412,289.893 116.112,289.636 114.050 C 289.379 111.987,288.927 109.827,288.631 109.250 C 288.336 108.672,287.968 107.390,287.813 106.400 C 287.659 105.410,287.200 103.944,286.794 103.142 C 286.389 102.340,285.842 100.594,285.580 99.260 C 285.312 97.899,284.774 96.538,284.352 96.156 C 283.938 95.782,283.597 95.099,283.594 94.638 C 283.591 94.177,283.327 93.350,283.008 92.800 C 282.688 92.250,282.085 91.077,281.668 90.193 C 280.519 87.764,277.477 84.965,275.421 84.447 C 274.469 84.207,273.598 83.773,273.487 83.481 C 273.375 83.190,272.500 82.720,271.542 82.436 C 270.584 82.153,269.516 81.669,269.170 81.361 C 268.823 81.054,267.691 80.643,266.655 80.450 C 265.619 80.256,264.460 79.816,264.079 79.472 C 263.698 79.127,262.130 78.645,260.593 78.401 C 259.057 78.156,257.359 77.668,256.819 77.316 C 256.247 76.942,254.349 76.538,252.261 76.346 C 250.199 76.155,248.276 75.748,247.721 75.385 C 247.003 74.915,244.913 74.655,239.480 74.362 C 235.476 74.145,230.940 73.705,229.400 73.384 C 224.299 72.321,108.574 72.527,108.000 73.601 " stroke="none" fill="#040404" fill-rule="evenodd"></path><path id="path4" d="M77.600 32.871 C 76.830 33.020,75.120 33.329,73.800 33.558 C 71.171 34.015,68.472 36.309,67.770 38.684 C 67.234 40.497,67.069 339.793,67.602 342.280 C 68.219 345.155,71.053 348.182,73.468 348.547 C 74.908 348.765,75.172 348.961,75.396 349.981 C 75.539 350.631,75.970 351.576,76.355 352.081 C 76.739 352.587,77.280 353.564,77.556 354.254 C 78.153 355.743,81.804 358.400,83.253 358.400 C 84.756 358.400,85.483 359.214,85.724 361.165 C 86.138 364.526,88.805 366.331,95.305 367.651 C 98.178 368.235,225.720 367.887,227.800 367.290 C 228.680 367.037,233.190 366.666,237.823 366.465 C 244.295 366.185,246.540 365.948,247.513 365.445 C 248.273 365.052,250.522 364.650,253.135 364.440 C 255.530 364.247,258.100 363.806,258.845 363.459 C 259.590 363.111,261.457 362.631,262.993 362.391 C 264.530 362.151,266.072 361.697,266.420 361.382 C 266.768 361.067,268.195 360.653,269.590 360.462 C 271.045 360.263,272.315 359.857,272.568 359.511 C 272.811 359.179,273.990 358.697,275.189 358.440 C 276.387 358.183,277.645 357.725,277.984 357.423 C 278.323 357.122,279.344 356.676,280.253 356.434 C 281.163 356.192,282.120 355.737,282.381 355.423 C 282.642 355.109,283.374 354.737,284.009 354.598 C 284.643 354.459,285.576 354.026,286.081 353.636 C 286.587 353.247,287.613 352.719,288.363 352.463 C 289.113 352.207,289.978 351.638,290.286 351.199 C 290.594 350.759,291.173 350.400,291.574 350.400 C 291.974 350.400,292.536 350.118,292.822 349.774 C 293.108 349.429,293.895 348.862,294.571 348.514 C 295.247 348.166,296.035 347.548,296.323 347.140 C 296.610 346.733,297.054 346.400,297.309 346.400 C 297.563 346.400,298.138 346.043,298.586 345.607 C 299.034 345.171,300.482 343.940,301.804 342.873 C 304.832 340.426,306.426 338.832,308.873 335.804 C 309.940 334.482,311.171 333.034,311.607 332.586 C 312.043 332.138,312.400 331.581,312.400 331.348 C 312.400 331.115,312.744 330.613,313.163 330.233 C 313.583 329.853,314.159 328.970,314.443 328.271 C 314.727 327.572,315.284 326.765,315.680 326.477 C 316.076 326.190,316.400 325.730,316.400 325.455 C 316.400 325.180,316.850 324.345,317.400 323.600 C 317.950 322.855,318.400 321.991,318.400 321.680 C 318.400 321.370,318.850 320.581,319.400 319.927 C 319.950 319.273,320.400 318.417,320.400 318.023 C 320.400 317.630,320.782 316.823,321.248 316.230 C 321.714 315.637,322.258 314.431,322.456 313.549 C 322.654 312.667,323.156 311.463,323.571 310.873 C 323.986 310.283,324.447 309.080,324.596 308.200 C 324.746 307.320,325.123 306.315,325.435 305.967 C 325.747 305.619,326.194 304.269,326.428 302.967 C 326.662 301.665,327.184 299.880,327.587 299.000 C 327.990 298.120,328.435 296.288,328.576 294.928 C 328.718 293.568,329.096 291.929,329.418 291.284 C 329.740 290.639,330.191 288.152,330.421 285.756 C 330.650 283.360,331.112 280.590,331.447 279.600 C 333.398 273.830,333.382 143.283,331.430 138.610 C 331.090 137.796,330.650 135.101,330.452 132.621 C 330.222 129.743,329.865 127.765,329.466 127.155 C 329.122 126.630,328.723 124.940,328.579 123.400 C 328.435 121.860,327.969 119.856,327.545 118.946 C 327.120 118.036,326.604 116.256,326.398 114.991 C 326.192 113.725,325.749 112.386,325.413 112.014 C 325.077 111.643,324.648 110.518,324.461 109.514 C 324.273 108.510,323.733 107.062,323.260 106.297 C 322.787 105.532,322.400 104.546,322.400 104.107 C 322.400 103.667,322.069 102.879,321.664 102.354 C 321.259 101.829,320.726 100.807,320.478 100.081 C 320.231 99.356,319.662 98.297,319.214 97.727 C 318.766 97.158,318.400 96.366,318.400 95.967 C 318.400 95.568,317.950 94.756,317.400 94.162 C 316.850 93.569,316.400 92.838,316.400 92.538 C 316.400 92.238,316.040 91.684,315.600 91.307 C 315.160 90.930,314.800 90.425,314.800 90.183 C 314.800 89.942,314.263 89.142,313.606 88.407 C 312.950 87.672,312.308 86.739,312.179 86.335 C 312.051 85.931,311.783 85.600,311.583 85.600 C 311.384 85.600,310.937 85.051,310.589 84.380 C 310.242 83.708,307.853 81.020,305.279 78.405 C 302.706 75.791,299.326 72.335,297.768 70.726 C 293.659 66.480,290.102 63.200,289.606 63.200 C 289.368 63.200,289.045 62.877,288.887 62.482 C 288.560 61.664,284.003 57.496,280.346 54.669 C 277.008 52.089,273.405 49.600,273.009 49.600 C 272.754 49.600,272.169 49.168,271.710 48.640 C 271.250 48.112,270.318 47.558,269.637 47.408 C 268.957 47.259,268.400 46.986,268.400 46.801 C 268.400 46.617,267.545 46.151,266.500 45.765 C 265.455 45.380,264.330 44.839,264.000 44.563 C 263.670 44.288,262.860 43.928,262.200 43.765 C 261.540 43.601,260.208 43.047,259.240 42.533 C 258.273 42.020,257.100 41.600,256.635 41.600 C 256.169 41.600,255.119 41.242,254.302 40.803 C 253.485 40.365,251.957 39.819,250.908 39.590 C 249.859 39.360,248.453 38.918,247.784 38.607 C 247.115 38.296,245.315 37.847,243.784 37.607 C 242.253 37.368,240.460 36.925,239.800 36.623 C 239.140 36.320,236.558 35.860,234.061 35.600 C 231.565 35.340,228.924 34.877,228.192 34.571 C 224.869 33.182,207.892 32.889,119.600 32.691 C 97.270 32.641,78.370 32.722,77.600 32.871 M220.919 34.327 C 223.514 34.576,226.307 34.960,227.126 35.180 C 227.946 35.401,230.703 35.855,233.254 36.189 C 235.804 36.524,238.591 37.041,239.446 37.339 C 240.301 37.638,241.935 38.003,243.077 38.151 C 244.219 38.300,245.839 38.711,246.677 39.064 C 247.515 39.418,249.100 39.940,250.200 40.225 C 252.591 40.845,257.179 42.426,259.400 43.395 C 262.056 44.554,266.149 46.448,267.000 46.911 C 267.440 47.151,268.340 47.610,269.000 47.931 C 270.795 48.806,277.546 53.287,279.600 54.968 C 283.703 58.327,285.442 59.873,286.589 61.183 C 287.255 61.944,288.970 63.649,290.400 64.974 C 300.203 74.051,314.000 89.579,314.000 91.534 C 314.000 91.768,314.240 92.104,314.532 92.280 C 315.094 92.617,315.178 92.766,318.254 98.851 C 321.078 104.439,323.227 109.476,323.777 111.800 C 323.934 112.460,324.310 113.540,324.613 114.200 C 324.917 114.860,325.434 116.480,325.764 117.800 C 326.093 119.120,326.632 121.280,326.962 122.600 C 328.445 128.536,329.279 133.031,329.822 138.020 C 330.144 140.979,330.631 143.940,330.904 144.600 C 331.775 146.707,331.609 269.081,330.729 273.800 C 330.360 275.780,329.842 279.560,329.579 282.200 C 329.315 284.840,328.936 287.316,328.735 287.701 C 328.534 288.087,328.027 290.157,327.607 292.301 C 326.650 297.192,325.239 302.691,324.605 304.000 C 324.339 304.550,323.889 305.860,323.606 306.910 C 323.322 307.961,322.940 308.914,322.756 309.027 C 322.572 309.141,322.226 309.991,321.987 310.917 C 321.369 313.310,316.798 322.345,314.236 326.239 C 313.816 326.877,313.008 328.120,312.440 329.000 C 307.848 336.121,299.740 343.686,290.287 349.667 C 288.115 351.042,279.304 355.448,278.000 355.812 C 277.450 355.966,276.460 356.411,275.800 356.802 C 275.140 357.194,273.973 357.647,273.206 357.809 C 272.439 357.972,271.449 358.334,271.006 358.614 C 270.563 358.894,269.390 359.252,268.400 359.409 C 267.410 359.567,265.678 360.038,264.551 360.458 C 263.424 360.877,261.018 361.480,259.204 361.799 C 257.391 362.118,255.703 362.541,255.454 362.738 C 255.204 362.936,253.650 363.224,252.000 363.378 C 250.350 363.532,246.930 364.018,244.400 364.458 C 241.870 364.899,236.830 365.417,233.200 365.610 C 225.890 366.000,94.005 366.141,92.108 365.762 C 90.257 365.391,87.141 362.217,86.634 360.187 C 86.265 358.707,85.296 357.600,84.371 357.600 C 82.152 357.600,78.528 354.726,77.805 352.392 C 76.900 349.473,76.027 348.418,74.117 347.937 C 71.782 347.349,69.046 344.753,68.432 342.541 C 67.752 340.092,67.867 41.071,68.548 39.164 C 69.445 36.654,71.123 34.850,73.149 34.216 C 75.541 33.467,213.018 33.571,220.919 34.327 M106.628 72.229 C 106.058 72.799,106.008 84.841,106.099 200.329 L 106.200 327.800 159.800 327.800 C 202.564 327.800,213.966 327.693,216.199 327.271 C 217.738 326.980,221.068 326.578,223.599 326.376 C 239.178 325.138,254.688 319.526,266.357 310.907 C 268.602 309.248,277.157 300.466,277.956 299.000 C 278.435 298.120,279.360 296.590,280.012 295.600 C 280.664 294.610,281.486 293.170,281.839 292.400 C 282.191 291.630,282.700 290.730,282.970 290.400 C 284.057 289.068,286.833 281.840,288.254 276.641 C 288.789 274.683,289.318 272.932,289.431 272.750 C 289.543 272.568,289.887 270.930,290.195 269.110 C 290.502 267.289,291.022 264.540,291.351 263.000 C 291.679 261.460,292.057 258.670,292.191 256.800 C 292.325 254.930,292.705 250.880,293.037 247.800 C 294.862 230.843,293.423 128.071,291.225 118.400 C 290.800 116.530,290.341 114.030,290.205 112.844 C 290.069 111.659,289.687 109.949,289.357 109.044 C 289.027 108.140,288.422 106.140,288.012 104.600 C 287.101 101.170,286.136 98.315,285.174 96.200 C 284.774 95.320,284.162 93.970,283.815 93.200 C 281.031 87.031,278.999 84.531,275.334 82.768 C 273.830 82.045,272.330 81.237,272.000 80.973 C 271.670 80.709,270.320 80.185,269.000 79.809 C 267.680 79.432,266.420 78.977,266.200 78.798 C 265.980 78.618,264.634 78.170,263.209 77.801 C 261.784 77.433,260.254 76.931,259.809 76.687 C 259.364 76.442,257.380 75.926,255.400 75.539 C 253.420 75.153,250.540 74.574,249.000 74.252 C 237.212 71.791,232.210 71.631,166.529 71.615 C 113.141 71.601,107.195 71.662,106.628 72.229 M229.400 73.384 C 230.940 73.705,235.476 74.145,239.480 74.362 C 244.913 74.655,247.003 74.915,247.721 75.385 C 248.276 75.748,250.199 76.155,252.261 76.346 C 254.349 76.538,256.247 76.942,256.819 77.316 C 257.359 77.668,259.057 78.156,260.593 78.401 C 262.130 78.645,263.698 79.127,264.079 79.472 C 264.460 79.816,265.619 80.256,266.655 80.450 C 267.691 80.643,268.823 81.054,269.170 81.361 C 269.516 81.669,270.584 82.153,271.542 82.436 C 272.500 82.720,273.375 83.190,273.487 83.481 C 273.598 83.773,274.469 84.207,275.421 84.447 C 277.477 84.965,280.519 87.764,281.668 90.193 C 282.085 91.077,282.688 92.250,283.008 92.800 C 283.327 93.350,283.591 94.177,283.594 94.638 C 283.597 95.099,283.938 95.782,284.352 96.156 C 284.774 96.538,285.312 97.899,285.580 99.260 C 285.842 100.594,286.389 102.340,286.794 103.142 C 287.200 103.944,287.659 105.410,287.813 106.400 C 287.968 107.390,288.336 108.672,288.631 109.250 C 288.927 109.827,289.379 111.987,289.636 114.050 C 289.893 116.112,290.352 118.412,290.656 119.160 C 290.961 119.908,291.390 123.238,291.611 126.560 C 291.833 129.882,292.291 135.300,292.630 138.600 C 293.404 146.134,293.293 237.032,292.501 244.600 C 292.247 247.020,291.850 251.645,291.619 254.878 C 291.387 258.111,291.004 261.261,290.768 261.878 C 290.532 262.495,290.083 264.941,289.770 267.313 C 289.457 269.686,288.948 272.026,288.639 272.513 C 288.329 273.001,287.949 274.390,287.794 275.600 C 287.639 276.810,287.082 278.717,286.556 279.839 C 286.030 280.960,285.594 282.130,285.586 282.439 C 285.579 282.747,285.225 283.720,284.800 284.600 C 284.375 285.480,284.021 286.366,284.014 286.570 C 283.989 287.234,280.693 293.600,280.373 293.600 C 280.202 293.600,279.854 294.230,279.600 295.000 C 279.346 295.770,278.992 296.400,278.815 296.400 C 278.637 296.400,278.212 296.989,277.871 297.708 C 276.769 300.028,270.737 306.483,266.792 309.562 C 262.839 312.647,257.763 316.000,257.045 316.000 C 256.835 316.000,256.379 316.239,256.031 316.532 C 255.684 316.825,254.545 317.380,253.500 317.765 C 252.455 318.151,251.600 318.616,251.600 318.800 C 251.600 318.984,250.657 319.336,249.505 319.583 C 248.353 319.830,247.043 320.273,246.593 320.568 C 246.144 320.862,244.701 321.334,243.388 321.617 C 242.075 321.899,240.723 322.365,240.384 322.651 C 240.044 322.938,237.974 323.380,235.784 323.633 C 233.593 323.887,231.170 324.355,230.400 324.674 C 229.605 325.004,225.891 325.495,221.800 325.813 C 217.840 326.120,213.970 326.588,213.200 326.852 C 211.733 327.355,110.935 327.921,109.007 327.437 C 108.502 327.311,107.981 326.927,107.849 326.584 C 107.391 325.389,107.540 74.460,108.000 73.601 C 108.574 72.527,224.299 72.321,229.400 73.384 " stroke="none" fill="#07494b" fill-rule="evenodd"></path></g></svg>