<svg width="16" height="16" viewBox="0 0 16 16" xmlns="http://www.w3.org/2000/svg">
   <path d="M2.23151 5.42026e-07C1.98329 -0.000187454 1.73745 0.0485298 1.50806 0.14337C1.27867 0.238209 1.07021 0.377313 0.894585 0.552736C0.718964 0.728158 0.579623 0.936461 0.484523 1.16575C0.389422 1.39503 0.340426 1.64081 0.340332 1.88903C0.340332 2.93372 1.18682 3.79953 2.22936 3.79953C3.27334 3.79953 4.12054 2.93373 4.12054 1.89046C4.12073 1.64227 4.07201 1.39648 3.97716 1.16712C3.88231 0.93777 3.7432 0.729356 3.56776 0.553791C3.39233 0.378227 3.18402 0.238953 2.95474 0.143931C2.72546 0.048909 2.4797 4.70804e-07 2.23151 5.42026e-07ZM11.4563 5.0088C9.8685 5.0088 8.96047 5.83883 8.52399 6.66456H8.4782V5.23133H5.34913V15.7419H8.60986V10.5392C8.60986 9.16825 8.7129 7.84306 10.4094 7.84306C12.0817 7.84306 12.106 9.40652 12.106 10.6258V15.7419H15.3667V9.96894C15.3667 7.14398 14.7592 5.0088 11.4563 5.0088ZM0.600074 5.23062V15.7419H3.86295V5.23062H0.600074Z" fill="white" />
</svg>